<svg xmlns="http://www.w3.org/2000/svg" viewBox="0 0 64 64" width="64" height="64">
  <defs>
    <linearGradient id="metal" x1="0" x2="1" y1="0" y2="1">
      <stop offset="0" stop-color="#e6e9ec"/>
      <stop offset="0.5" stop-color="#c6c9cc"/>
      <stop offset="1" stop-color="#9aa0a6"/>
    </linearGradient>
    <radialGradient id="shade" cx="30%" cy="30%" r="80%">
      <stop offset="0" stop-color="#ffffff" stop-opacity="0.9"/>
      <stop offset="1" stop-color="#000000" stop-opacity="0.15"/>
    </radialGradient>
  </defs>

  <!-- outer vault ring -->
  <circle cx="32" cy="32" r="28" fill="#2d2f31"/>
  <circle cx="32" cy="32" r="24" fill="url(#metal)" stroke="#333" stroke-width="1.5"/>

  <!-- bolts -->
  <g fill="#4b4f54">
    <circle cx="32" cy="8" r="2"/>
    <circle cx="32" cy="56" r="2"/>
    <circle cx="8" cy="32" r="2"/>
    <circle cx="56" cy="32" r="2"/>
    <circle cx="48" cy="48" r="2"/>
    <circle cx="16" cy="16" r="2"/>
  </g>

  <!-- inner recessed ring -->
  <circle cx="32" cy="32" r="14" fill="#1f2224" stroke="#2b2d2f" stroke-width="1"/>

  <!-- combination dial -->
  <g transform="translate(0,0)">
    <circle cx="32" cy="32" r="10" fill="url(#metal)" stroke="#2b2d2f" stroke-width="1"/>

    <!-- tick marks -->
    <g stroke="#2b2d2f" stroke-width="1">
      <line x1="32" y1="18" x2="32" y2="21"/>
      <line x1="32" y1="44" x2="32" y2="41"/>
      <line x1="18" y1="32" x2="21" y2="32"/>
      <line x1="46" y1="32" x2="43" y2="32"/>
      <line x1="44" y1="20" x2="42" y2="22"/>
      <line x1="20" y1="44" x2="22" y2="42"/>
    </g>

    <!-- dial center -->
    <circle cx="32" cy="32" r="2.2" fill="#2b2d2f"/>
  </g>

  <!-- subtle highlight -->
  <path d="M14 22 C22 14, 42 14, 50 22" fill="none" stroke="#fff" stroke-opacity="0.08" stroke-width="1.5"/>
</svg>